<mxfile host="app.diagrams.net" modified="2022-01-26T04:18:07.158Z" agent="5.0 (Macintosh; Intel Mac OS X 10_15_7) AppleWebKit/537.36 (KHTML, like Gecko) Chrome/97.0.4692.99 Safari/537.36" etag="lM4Nezrs0dVA6-8JvHMY" version="16.4.6" type="github">
  <diagram id="-r_9IxID4exdYt6cCJqe" name="Page-1">
    <mxGraphModel dx="1186" dy="732" grid="1" gridSize="10" guides="1" tooltips="1" connect="1" arrows="1" fold="1" page="1" pageScale="1" pageWidth="827" pageHeight="1169" math="0" shadow="0">
      <root>
        <mxCell id="0" />
        <mxCell id="1" parent="0" />
        <mxCell id="6vjevaHg2p4W8DrE906L-3" style="edgeStyle=orthogonalEdgeStyle;rounded=0;orthogonalLoop=1;jettySize=auto;html=1;exitX=1;exitY=0.5;exitDx=0;exitDy=0;entryX=0;entryY=0.5;entryDx=0;entryDy=0;" edge="1" parent="1" source="6vjevaHg2p4W8DrE906L-1" target="6vjevaHg2p4W8DrE906L-2">
          <mxGeometry relative="1" as="geometry" />
        </mxCell>
        <mxCell id="6vjevaHg2p4W8DrE906L-1" value="Publisher&lt;br&gt;发布者" style="rounded=0;whiteSpace=wrap;html=1;fillColor=#dae8fc;strokeColor=#6c8ebf;" vertex="1" parent="1">
          <mxGeometry x="50" y="280" width="120" height="60" as="geometry" />
        </mxCell>
        <mxCell id="6vjevaHg2p4W8DrE906L-5" value="" style="edgeStyle=orthogonalEdgeStyle;rounded=0;orthogonalLoop=1;jettySize=auto;html=1;" edge="1" parent="1" source="6vjevaHg2p4W8DrE906L-2" target="6vjevaHg2p4W8DrE906L-4">
          <mxGeometry relative="1" as="geometry" />
        </mxCell>
        <mxCell id="6vjevaHg2p4W8DrE906L-2" value="回压" style="ellipse;whiteSpace=wrap;html=1;aspect=fixed;fillColor=#fff2cc;strokeColor=#d6b656;" vertex="1" parent="1">
          <mxGeometry x="230" y="270" width="80" height="80" as="geometry" />
        </mxCell>
        <mxCell id="6vjevaHg2p4W8DrE906L-7" style="edgeStyle=orthogonalEdgeStyle;rounded=0;orthogonalLoop=1;jettySize=auto;html=1;exitX=1;exitY=0.5;exitDx=0;exitDy=0;entryX=0;entryY=0.5;entryDx=0;entryDy=0;" edge="1" parent="1" source="6vjevaHg2p4W8DrE906L-4" target="6vjevaHg2p4W8DrE906L-6">
          <mxGeometry relative="1" as="geometry" />
        </mxCell>
        <mxCell id="6vjevaHg2p4W8DrE906L-4" value="处理器&lt;br&gt;Publish / Subscriber" style="whiteSpace=wrap;html=1;fillColor=#d5e8d4;strokeColor=#82b366;" vertex="1" parent="1">
          <mxGeometry x="360" y="280" width="140" height="60" as="geometry" />
        </mxCell>
        <mxCell id="6vjevaHg2p4W8DrE906L-9" value="" style="edgeStyle=orthogonalEdgeStyle;rounded=0;orthogonalLoop=1;jettySize=auto;html=1;entryX=0;entryY=0.5;entryDx=0;entryDy=0;" edge="1" parent="1" source="6vjevaHg2p4W8DrE906L-6" target="6vjevaHg2p4W8DrE906L-10">
          <mxGeometry relative="1" as="geometry">
            <mxPoint x="730" y="310" as="targetPoint" />
          </mxGeometry>
        </mxCell>
        <mxCell id="6vjevaHg2p4W8DrE906L-6" value="回压" style="ellipse;whiteSpace=wrap;html=1;aspect=fixed;fillColor=#fff2cc;strokeColor=#d6b656;" vertex="1" parent="1">
          <mxGeometry x="540" y="270" width="80" height="80" as="geometry" />
        </mxCell>
        <mxCell id="6vjevaHg2p4W8DrE906L-10" value="Subscriber&lt;br&gt;订阅者" style="rounded=0;whiteSpace=wrap;html=1;fillColor=#f8cecc;strokeColor=#b85450;" vertex="1" parent="1">
          <mxGeometry x="680" y="280" width="120" height="60" as="geometry" />
        </mxCell>
        <mxCell id="6vjevaHg2p4W8DrE906L-11" value="Subscription&lt;br&gt;契约/订阅协议" style="whiteSpace=wrap;html=1;shape=partialRectangle;top=0;left=0;bottom=1;right=0;points=[[0,1],[1,1]];fillColor=none;align=center;verticalAlign=bottom;routingCenterY=0.5;snapToPoint=1;recursiveResize=0;autosize=1;treeFolding=1;treeMoving=1;newEdgeStyle={&quot;edgeStyle&quot;:&quot;entityRelationEdgeStyle&quot;,&quot;startArrow&quot;:&quot;none&quot;,&quot;endArrow&quot;:&quot;none&quot;,&quot;segment&quot;:10,&quot;curved&quot;:1};fontColor=#000000;" vertex="1" parent="1">
          <mxGeometry x="290" y="210" width="110" height="30" as="geometry" />
        </mxCell>
        <mxCell id="6vjevaHg2p4W8DrE906L-12" value="" style="edgeStyle=entityRelationEdgeStyle;startArrow=none;endArrow=none;segment=10;curved=1;rounded=0;fontColor=#000000;exitX=0.5;exitY=0;exitDx=0;exitDy=0;" edge="1" target="6vjevaHg2p4W8DrE906L-11" parent="1" source="6vjevaHg2p4W8DrE906L-2">
          <mxGeometry relative="1" as="geometry">
            <mxPoint x="270" y="250" as="sourcePoint" />
          </mxGeometry>
        </mxCell>
        <mxCell id="6vjevaHg2p4W8DrE906L-13" value="Subscription&lt;br&gt;契约/订阅协议" style="whiteSpace=wrap;html=1;shape=partialRectangle;top=0;left=0;bottom=1;right=0;points=[[0,1],[1,1]];fillColor=none;align=center;verticalAlign=bottom;routingCenterY=0.5;snapToPoint=1;recursiveResize=0;autosize=1;treeFolding=1;treeMoving=1;newEdgeStyle={&quot;edgeStyle&quot;:&quot;entityRelationEdgeStyle&quot;,&quot;startArrow&quot;:&quot;none&quot;,&quot;endArrow&quot;:&quot;none&quot;,&quot;segment&quot;:10,&quot;curved&quot;:1};fontColor=#000000;" vertex="1" parent="1">
          <mxGeometry x="600" y="210" width="110" height="30" as="geometry" />
        </mxCell>
        <mxCell id="6vjevaHg2p4W8DrE906L-14" value="" style="edgeStyle=entityRelationEdgeStyle;startArrow=none;endArrow=none;segment=10;curved=1;rounded=0;fontColor=#000000;exitX=0.5;exitY=0;exitDx=0;exitDy=0;" edge="1" parent="1" target="6vjevaHg2p4W8DrE906L-13" source="6vjevaHg2p4W8DrE906L-6">
          <mxGeometry relative="1" as="geometry">
            <mxPoint x="580" y="260" as="sourcePoint" />
          </mxGeometry>
        </mxCell>
        <mxCell id="6vjevaHg2p4W8DrE906L-15" value="Reactor Stream 组件模型" style="text;html=1;strokeColor=none;fillColor=none;align=center;verticalAlign=middle;whiteSpace=wrap;rounded=0;fontStyle=1" vertex="1" parent="1">
          <mxGeometry x="30" y="200" width="160" height="30" as="geometry" />
        </mxCell>
      </root>
    </mxGraphModel>
  </diagram>
</mxfile>
